<svg id="svg" xmlns="http://www.w3.org/2000/svg" xmlns:xlink="http://www.w3.org/1999/xlink" width="400" height="400" viewBox="0, 0, 400,400"><g id="svgg"><path id="path0" d="M253.600 0.889 C 242.138 5.105,231.459 20.927,222.966 46.278 C 221.438 50.842,221.447 50.800,222.000 50.800 C 222.220 50.800,222.400 50.528,222.400 50.195 C 222.400 49.862,222.566 49.277,222.768 48.895 C 222.970 48.513,223.730 46.850,224.456 45.200 C 242.968 3.136,267.617 12.339,282.847 67.000 C 283.092 67.880,283.446 69.050,283.633 69.600 C 284.040 70.800,287.289 84.407,287.978 87.800 C 288.246 89.120,288.616 90.920,288.800 91.800 C 290.268 98.813,291.910 108.592,292.996 116.800 C 294.280 126.497,294.346 127.071,295.571 139.000 C 296.141 144.554,296.732 151.818,297.023 156.831 C 297.352 162.527,297.601 162.760,299.355 159.015 C 300.150 157.317,300.800 155.868,300.800 155.794 C 300.800 155.603,303.466 149.740,304.480 147.700 C 305.596 145.457,305.590 145.453,307.395 149.500 C 308.254 151.425,309.533 154.260,310.237 155.800 C 310.941 157.340,311.998 159.667,312.586 160.971 C 314.555 165.341,314.858 165.465,314.617 161.800 C 313.542 145.462,313.486 144.755,312.379 133.200 C 311.687 125.975,310.660 117.692,309.156 107.200 C 308.044 99.438,305.222 84.011,303.596 76.800 C 303.423 76.030,303.091 74.500,302.858 73.400 C 302.626 72.300,301.899 69.330,301.243 66.800 C 299.246 59.103,299.030 58.344,296.430 49.900 C 295.425 46.633,292.137 37.463,291.233 35.400 C 291.040 34.960,290.609 33.970,290.277 33.200 C 282.798 15.894,274.224 4.725,266.000 1.578 C 264.790 1.115,263.487 0.570,263.105 0.368 C 261.835 -0.305,255.973 0.016,253.600 0.889 M71.665 99.817 C 70.995 101.288,71.123 101.602,71.847 100.265 C 72.186 99.640,72.388 99.054,72.296 98.963 C 72.205 98.871,71.921 99.256,71.665 99.817 M176.800 99.893 C 176.800 100.062,181.471 100.149,187.180 100.087 L 197.561 99.974 197.709 102.287 L 197.857 104.600 197.829 102.200 L 197.800 99.800 187.300 99.693 C 181.525 99.635,176.800 99.725,176.800 99.893 M177.060 104.900 C 177.163 105.065,178.855 105.200,180.819 105.200 L 184.391 105.200 184.495 120.900 L 184.600 136.600 187.200 136.600 L 189.800 136.600 190.000 121.000 L 190.200 105.400 193.800 105.176 L 197.400 104.951 193.743 104.876 C 189.161 104.781,189.600 103.046,189.600 121.233 L 189.600 136.400 187.205 136.400 L 184.809 136.400 184.705 120.700 L 184.600 105.000 180.737 104.800 C 178.612 104.690,176.958 104.735,177.060 104.900 M117.198 108.882 C 117.089 111.237,117.142 113.021,117.315 112.846 C 117.489 112.672,117.578 110.745,117.513 108.565 L 117.395 104.600 117.198 108.882 M122.067 108.676 C 122.030 110.918,122.135 112.837,122.300 112.940 C 122.465 113.042,122.551 111.838,122.491 110.263 C 122.294 105.118,122.136 104.524,122.067 108.676 M71.795 111.874 C 71.462 112.671,71.265 113.399,71.358 113.491 C 71.451 113.584,71.757 113.023,72.039 112.244 C 72.436 111.144,72.668 110.925,73.075 111.263 C 73.411 111.541,73.600 111.552,73.600 111.292 C 73.600 110.125,72.358 110.526,71.795 111.874 M142.400 112.800 C 143.768 113.238,144.819 113.238,143.800 112.800 C 143.360 112.611,142.640 112.462,142.200 112.468 C 141.557 112.477,141.596 112.543,142.400 112.800 M212.800 112.800 C 214.168 113.238,215.219 113.238,214.200 112.800 C 213.760 112.611,213.040 112.462,212.600 112.468 C 211.957 112.477,211.996 112.543,212.800 112.800 M105.156 113.917 C 105.682 114.341,106.462 115.118,106.891 115.644 C 107.319 116.170,107.536 116.330,107.374 116.000 C 106.892 115.021,105.864 113.953,105.004 113.536 C 104.394 113.240,104.430 113.332,105.156 113.917 M125.994 115.718 L 126.189 118.200 126.317 116.043 C 126.388 114.856,126.300 113.740,126.123 113.561 C 125.945 113.383,125.887 114.354,125.994 115.718 M132.181 113.705 C 132.074 113.983,132.035 119.248,132.094 125.405 L 132.200 136.600 134.705 136.719 C 136.485 136.804,137.263 136.688,137.394 136.319 C 137.708 135.431,137.817 120.446,137.506 120.936 C 137.344 121.191,137.209 124.775,137.206 128.900 L 137.200 136.400 134.800 136.400 L 132.400 136.400 132.400 125.033 C 132.400 116.314,132.516 113.620,132.900 113.465 C 133.292 113.307,133.289 113.256,132.887 113.232 C 132.606 113.214,132.288 113.427,132.181 113.705 M207.293 114.000 C 207.568 114.440,208.019 114.800,208.296 114.800 C 208.603 114.800,208.486 114.486,208.000 114.000 C 207.560 113.560,207.108 113.200,206.997 113.200 C 206.885 113.200,207.018 113.560,207.293 114.000 M237.821 114.258 C 237.622 115.052,237.442 115.202,237.098 114.858 C 236.846 114.606,236.456 114.400,236.231 114.400 C 236.006 114.400,236.234 114.688,236.737 115.041 C 237.240 115.393,237.694 115.618,237.745 115.541 C 238.238 114.796,238.708 113.200,238.435 113.200 C 238.243 113.200,237.967 113.676,237.821 114.258 M242.712 124.800 L 242.824 136.361 240.312 136.514 L 237.800 136.667 240.400 136.634 L 243.000 136.600 243.106 125.226 C 243.165 118.971,243.075 113.715,242.906 113.546 C 242.738 113.377,242.650 118.442,242.712 124.800 M202.590 125.200 L 202.600 136.600 205.200 136.600 L 207.800 136.600 207.814 129.000 L 207.828 121.400 207.705 128.900 L 207.582 136.400 205.197 136.400 L 202.812 136.400 202.697 125.100 L 202.581 113.800 202.590 125.200 M224.676 115.300 C 223.430 116.533,223.425 116.549,224.581 115.603 C 225.252 115.055,225.971 114.470,226.180 114.303 C 226.389 114.136,226.431 114.000,226.274 114.000 C 226.117 114.000,225.398 114.585,224.676 115.300 M254.670 116.062 L 252.600 118.125 254.800 116.190 C 256.010 115.125,257.075 114.197,257.167 114.127 C 257.258 114.057,257.200 114.000,257.037 114.000 C 256.874 114.000,255.809 114.928,254.670 116.062 M153.775 116.100 L 152.600 117.400 153.900 116.225 C 155.112 115.130,155.384 114.800,155.075 114.800 C 155.006 114.800,154.421 115.385,153.775 116.100 M145.265 116.217 C 144.595 117.688,144.723 118.002,145.447 116.665 C 145.786 116.040,145.988 115.454,145.896 115.363 C 145.805 115.271,145.521 115.656,145.265 116.217 M69.600 116.884 C 69.600 117.004,69.328 117.754,68.995 118.551 C 68.662 119.348,68.479 120.000,68.589 120.000 C 68.906 120.000,70.033 117.100,69.805 116.872 C 69.692 116.759,69.600 116.765,69.600 116.884 M100.080 118.080 C 99.158 119.002,100.413 121.600,101.780 121.600 C 101.960 121.600,101.634 121.227,101.054 120.771 C 99.924 119.882,99.705 118.855,100.480 118.080 C 100.744 117.816,100.870 117.600,100.760 117.600 C 100.650 117.600,100.344 117.816,100.080 118.080 M140.506 117.926 C 140.212 118.113,140.575 118.240,141.400 118.240 C 142.225 118.240,142.588 118.113,142.294 117.926 C 142.022 117.753,141.620 117.612,141.400 117.612 C 141.180 117.612,140.778 117.753,140.506 117.926 M210.600 117.974 C 210.024 118.203,210.269 118.281,211.474 118.254 C 212.394 118.232,212.934 118.079,212.674 117.914 C 212.096 117.546,211.643 117.560,210.600 117.974 M94.838 119.600 C 94.824 120.590,94.970 121.649,95.163 121.954 C 95.379 122.295,95.441 121.758,95.324 120.554 C 95.060 117.845,94.868 117.467,94.838 119.600 M105.076 118.846 C 104.677 119.077,104.083 119.164,103.755 119.038 C 103.418 118.909,103.265 118.981,103.403 119.205 C 103.751 119.767,104.523 119.694,105.424 119.013 C 106.326 118.330,106.126 118.234,105.076 118.846 M117.200 127.538 L 117.400 136.600 119.800 136.600 L 122.200 136.600 122.212 127.600 L 122.224 118.600 122.104 127.500 L 121.985 136.400 119.792 136.400 L 117.600 136.400 117.600 127.624 C 117.600 122.797,117.465 118.763,117.300 118.661 C 117.135 118.559,117.090 122.553,117.200 127.538 M227.804 119.596 C 227.174 120.254,226.735 120.856,226.829 120.934 C 226.923 121.012,227.513 120.474,228.139 119.738 C 229.554 118.077,229.345 117.988,227.804 119.596 M258.129 119.300 C 257.684 119.795,257.176 120.470,257.001 120.800 C 256.663 121.437,256.755 121.350,258.376 119.500 C 258.906 118.895,259.249 118.400,259.139 118.400 C 259.029 118.400,258.575 118.805,258.129 119.300 M267.087 119.609 C 267.795 120.351,268.442 120.878,268.525 120.779 C 268.608 120.681,268.029 120.073,267.238 119.429 L 265.800 118.258 267.087 119.609 M67.843 121.033 C 67.516 121.886,67.537 122.400,67.900 122.400 C 68.065 122.400,68.226 121.950,68.258 121.400 C 68.324 120.249,68.189 120.130,67.843 121.033 M226.249 122.215 C 226.112 122.573,226.029 123.976,226.065 125.333 L 226.129 127.800 226.384 124.800 C 226.657 121.578,226.638 121.204,226.249 122.215 M237.800 125.000 C 237.800 126.828,237.932 128.116,238.094 127.862 C 238.256 127.608,238.388 126.320,238.388 125.000 C 238.388 123.680,238.256 122.392,238.094 122.138 C 237.932 121.884,237.800 123.172,237.800 125.000 M220.937 125.000 C 220.939 126.760,221.009 127.430,221.093 126.489 C 221.178 125.549,221.177 124.109,221.091 123.289 C 221.005 122.470,220.936 123.240,220.937 125.000 M250.920 125.200 C 250.920 126.410,250.995 126.905,251.087 126.300 C 251.178 125.695,251.178 124.705,251.087 124.100 C 250.995 123.495,250.920 123.990,250.920 125.200 M108.255 126.200 C 109.180 127.779,109.200 127.803,109.200 127.311 C 109.200 127.079,108.829 126.464,108.376 125.944 L 107.553 125.000 108.255 126.200 M167.837 127.803 C 167.672 128.461,167.068 129.630,166.495 130.400 C 165.680 131.494,165.637 131.639,166.298 131.064 C 167.303 130.188,168.521 127.762,168.295 127.085 C 168.207 126.822,168.001 127.145,167.837 127.803 M266.975 130.500 L 265.800 131.800 267.028 130.694 C 267.703 130.086,268.378 129.711,268.528 129.861 C 268.677 130.011,268.800 129.923,268.800 129.667 C 268.800 128.872,268.198 129.146,266.975 130.500 M94.400 131.400 C 93.932 131.964,94.582 134.751,95.069 134.265 C 95.157 134.176,95.017 133.635,94.756 133.064 C 94.385 132.249,94.392 131.891,94.790 131.412 C 95.069 131.075,95.208 130.800,95.098 130.800 C 94.988 130.800,94.674 131.070,94.400 131.400 M172.000 131.077 C 172.000 131.303,171.243 132.368,170.319 133.444 C 169.394 134.520,169.142 134.950,169.758 134.400 C 171.215 133.100,172.553 131.220,172.244 130.910 C 172.110 130.776,172.000 130.851,172.000 131.077 M152.000 131.766 C 152.000 132.779,157.299 137.234,157.850 136.683 C 157.947 136.587,157.475 136.280,156.802 136.001 C 156.130 135.722,154.774 134.599,153.790 133.504 C 152.805 132.409,152.000 131.627,152.000 131.766 M100.400 132.382 C 100.730 132.605,101.345 132.791,101.767 132.794 C 102.790 132.802,102.471 132.573,101.000 132.244 C 100.124 132.048,99.962 132.085,100.400 132.382 M260.715 132.472 C 261.092 132.621,261.940 132.744,262.600 132.744 C 263.260 132.744,264.108 132.621,264.485 132.472 C 264.862 132.322,264.014 132.200,262.600 132.200 C 261.186 132.200,260.338 132.322,260.715 132.472 M161.300 132.676 C 161.685 132.776,162.315 132.776,162.700 132.676 C 163.085 132.575,162.770 132.493,162.000 132.493 C 161.230 132.493,160.915 132.575,161.300 132.676 M224.400 134.600 C 225.146 135.370,225.847 136.000,225.957 136.000 C 226.067 136.000,225.546 135.370,224.800 134.600 C 224.054 133.830,223.353 133.200,223.243 133.200 C 223.133 133.200,223.654 133.830,224.400 134.600 M56.101 136.000 C 56.225 136.456,56.930 136.608,59.032 136.633 L 61.800 136.666 59.210 136.512 C 57.786 136.427,56.467 136.142,56.280 135.879 C 56.040 135.542,55.987 135.578,56.101 136.000 M83.362 136.090 C 83.542 136.991,89.208 137.018,89.168 136.118 C 89.150 135.698,89.053 135.608,88.935 135.900 C 88.687 136.515,83.764 136.596,83.463 135.990 C 83.352 135.764,83.306 135.810,83.362 136.090 M100.505 137.487 C 101.114 137.579,102.014 137.577,102.505 137.482 C 102.997 137.387,102.500 137.311,101.400 137.314 C 100.300 137.317,99.897 137.395,100.505 137.487 M160.707 137.490 C 161.426 137.579,162.506 137.577,163.107 137.486 C 163.708 137.395,163.120 137.322,161.800 137.324 C 160.480 137.326,159.988 137.401,160.707 137.490 M230.100 137.487 C 230.705 137.578,231.695 137.578,232.300 137.487 C 232.905 137.395,232.410 137.320,231.200 137.320 C 229.990 137.320,229.495 137.395,230.100 137.487 M261.507 137.490 C 262.226 137.579,263.306 137.577,263.907 137.486 C 264.508 137.395,263.920 137.322,262.600 137.324 C 261.280 137.326,260.788 137.401,261.507 137.490 M83.000 154.410 C 82.466 154.647,82.798 154.686,84.000 154.527 C 84.990 154.396,85.875 154.224,85.967 154.144 C 86.314 153.843,83.764 154.072,83.000 154.410 M93.633 154.144 C 93.725 154.224,94.610 154.396,95.600 154.527 C 96.802 154.686,97.134 154.647,96.600 154.410 C 95.836 154.072,93.286 153.843,93.633 154.144 M228.200 154.410 C 227.666 154.647,227.998 154.686,229.200 154.527 C 230.190 154.396,231.075 154.224,231.167 154.144 C 231.514 153.843,228.964 154.072,228.200 154.410 M238.033 154.144 C 238.125 154.224,239.010 154.396,240.000 154.527 C 241.202 154.686,241.534 154.647,241.000 154.410 C 240.236 154.072,237.686 153.843,238.033 154.144 M102.800 156.579 C 102.800 156.689,103.340 157.059,104.000 157.400 C 104.660 157.741,105.200 157.931,105.200 157.821 C 105.200 157.711,104.660 157.341,104.000 157.000 C 103.340 156.659,102.800 156.469,102.800 156.579 M72.595 158.553 C 71.498 159.297,70.150 160.417,69.600 161.042 C 68.811 161.938,68.938 161.883,70.200 160.782 C 71.080 160.014,72.475 158.970,73.300 158.460 C 74.584 157.668,75.102 157.200,74.695 157.200 C 74.637 157.200,73.692 157.809,72.595 158.553 M249.400 157.807 C 249.840 158.166,250.560 158.635,251.000 158.851 L 251.800 159.244 251.000 158.593 C 250.560 158.234,249.840 157.765,249.400 157.549 L 248.600 157.156 249.400 157.807 M216.880 159.496 C 215.768 160.318,214.917 161.051,214.990 161.123 C 215.062 161.195,215.994 160.592,217.061 159.783 C 219.332 158.060,219.401 158.000,219.117 158.000 C 218.998 158.000,217.992 158.673,216.880 159.496 M109.186 161.400 C 112.614 165.142,112.655 165.181,111.696 163.800 C 111.238 163.140,109.909 161.700,108.742 160.600 C 106.784 158.754,106.818 158.815,109.186 161.400 M256.017 163.015 C 257.217 164.343,258.282 165.371,258.381 165.300 C 258.481 165.229,257.498 164.143,256.198 162.886 L 253.833 160.600 256.017 163.015 M175.944 164.300 C 174.793 165.689,174.306 166.400,174.504 166.400 C 174.614 166.400,175.186 165.770,175.773 165.000 C 176.863 163.571,176.995 163.032,175.944 164.300 M304.483 165.700 C 303.379 167.928,300.400 174.438,300.400 174.624 C 300.400 174.704,299.590 176.503,298.600 178.622 C 297.610 180.740,296.800 182.533,296.800 182.606 C 296.800 182.679,295.900 184.656,294.800 187.000 C 293.700 189.344,292.800 191.325,292.800 191.403 C 292.800 191.481,292.280 192.682,291.644 194.072 C 291.008 195.462,290.000 197.680,289.403 199.000 C 288.807 200.320,287.459 203.290,286.408 205.600 C 285.356 207.910,284.098 210.700,283.610 211.800 C 283.123 212.900,282.303 214.700,281.789 215.800 C 281.274 216.900,279.927 219.870,278.794 222.400 C 277.661 224.930,276.299 227.890,275.767 228.979 C 275.235 230.067,274.800 231.102,274.800 231.279 C 274.800 231.455,279.930 231.600,286.200 231.600 L 297.600 231.600 297.600 233.792 C 297.600 234.998,297.422 238.283,297.205 241.092 C 296.987 243.902,296.622 248.630,296.394 251.600 C 294.833 271.878,292.182 291.419,288.551 309.400 C 288.196 311.160,287.757 313.341,287.575 314.246 C 287.072 316.750,284.018 329.264,283.632 330.400 C 283.446 330.950,283.092 332.120,282.847 333.000 C 267.310 388.765,242.298 397.114,223.530 352.800 C 223.297 352.250,222.948 351.487,222.753 351.105 C 222.559 350.723,222.400 350.138,222.400 349.805 C 222.400 349.472,222.220 349.200,222.000 349.200 C 221.780 349.200,221.600 349.549,221.600 349.976 C 221.600 350.403,221.780 350.864,222.000 351.000 C 222.220 351.136,222.400 351.651,222.400 352.144 C 222.400 352.637,222.543 353.211,222.718 353.420 C 222.893 353.629,223.268 354.520,223.551 355.400 C 229.915 375.219,240.457 391.959,250.047 397.478 C 253.805 399.640,262.132 401.005,263.000 399.600 C 263.136 399.380,263.588 399.200,264.004 399.200 C 267.262 399.200,275.956 391.915,280.302 385.544 C 283.303 381.146,288.126 372.087,290.389 366.600 C 290.570 366.160,291.010 365.136,291.367 364.324 C 292.509 361.722,296.091 351.634,296.808 349.000 C 296.987 348.340,297.520 346.540,297.991 345.000 C 299.378 340.470,302.011 330.372,303.153 325.200 C 303.610 323.133,303.842 322.091,304.781 317.900 C 304.990 316.965,305.536 314.130,305.995 311.600 C 306.453 309.070,306.993 306.190,307.195 305.200 C 307.397 304.210,307.847 301.510,308.194 299.200 C 308.542 296.890,308.990 293.920,309.191 292.600 C 310.300 285.290,311.745 273.548,312.415 266.400 C 312.652 263.870,313.008 260.180,313.206 258.200 C 313.405 256.220,313.764 251.450,314.006 247.600 C 314.247 243.750,314.570 238.620,314.722 236.200 L 315.000 231.800 325.500 231.693 C 332.423 231.623,336.000 231.445,336.000 231.171 C 336.000 230.778,335.672 230.000,333.312 224.800 C 332.763 223.590,331.542 220.890,330.600 218.800 C 329.658 216.710,328.417 213.965,327.843 212.700 C 327.269 211.435,326.331 209.365,325.757 208.100 C 325.183 206.835,323.942 204.090,323.000 202.000 C 322.058 199.910,320.817 197.165,320.243 195.900 C 319.669 194.635,318.731 192.565,318.157 191.300 C 317.583 190.035,316.342 187.290,315.400 185.200 C 314.458 183.110,313.237 180.410,312.688 179.200 C 311.060 175.613,309.953 173.157,308.721 170.400 C 305.332 162.815,305.707 163.231,304.483 165.700 M150.800 166.800 C 150.330 167.460,150.036 168.000,150.146 168.000 C 150.256 168.000,150.730 167.460,151.200 166.800 C 151.670 166.140,151.964 165.600,151.854 165.600 C 151.744 165.600,151.270 166.140,150.800 166.800 M170.975 170.668 C 170.359 171.476,170.059 172.011,170.309 171.856 C 170.821 171.540,172.553 169.200,172.275 169.200 C 172.176 169.200,171.591 169.861,170.975 170.668 M84.500 172.996 C 83.785 173.307,83.200 173.651,83.200 173.760 C 83.200 173.952,86.028 172.878,86.367 172.558 C 86.716 172.227,85.747 172.454,84.500 172.996 M145.523 174.300 C 144.600 175.376,142.338 178.800,142.550 178.800 C 142.653 178.800,143.556 177.630,144.556 176.200 C 146.339 173.649,146.714 172.912,145.523 174.300 M167.544 175.100 C 166.393 176.489,165.906 177.200,166.104 177.200 C 166.214 177.200,166.786 176.570,167.373 175.800 C 168.463 174.371,168.595 173.832,167.544 175.100 M229.322 175.829 L 228.200 176.858 229.500 175.954 C 230.215 175.457,230.800 174.993,230.800 174.925 C 230.800 174.609,230.358 174.880,229.322 175.829 M238.400 174.911 C 238.400 174.987,238.985 175.478,239.700 176.001 C 240.504 176.590,240.784 176.687,240.433 176.255 C 239.900 175.599,238.400 174.607,238.400 174.911 M95.055 176.200 C 95.980 177.779,96.000 177.803,96.000 177.311 C 96.000 177.079,95.629 176.464,95.176 175.944 L 94.353 175.000 95.055 176.200 M204.044 177.244 C 203.798 177.951,203.666 178.600,203.752 178.685 C 203.838 178.771,204.109 178.262,204.356 177.556 C 204.602 176.849,204.734 176.200,204.648 176.115 C 204.562 176.029,204.291 176.538,204.044 177.244 M226.723 178.300 C 226.018 179.121,225.490 180.000,225.701 180.000 C 225.783 180.000,226.249 179.460,226.737 178.800 C 227.701 177.496,227.692 177.172,226.723 178.300 M164.744 178.700 C 163.475 180.232,163.019 180.942,163.481 180.665 C 163.993 180.358,165.769 178.000,165.489 178.000 C 165.398 178.000,165.063 178.315,164.744 178.700 M79.849 179.015 C 79.712 179.373,79.621 180.146,79.646 180.733 C 79.680 181.532,79.770 181.398,80.004 180.200 C 80.335 178.500,80.262 177.940,79.849 179.015 M60.217 180.252 C 59.812 182.410,59.883 182.424,70.227 182.300 L 79.800 182.185 70.065 182.092 L 60.330 182.000 60.600 180.400 C 60.937 178.403,60.589 178.269,60.217 180.252 M266.456 182.000 C 266.456 182.330,266.611 182.960,266.800 183.400 C 267.017 183.904,267.144 183.978,267.144 183.600 C 267.144 183.270,266.989 182.640,266.800 182.200 C 266.583 181.696,266.456 181.622,266.456 182.000 M169.100 183.882 C 169.595 183.978,170.405 183.978,170.900 183.882 C 171.395 183.787,170.990 183.709,170.000 183.709 C 169.010 183.709,168.605 183.787,169.100 183.882 M267.268 185.600 C 267.288 186.639,267.918 188.346,267.932 187.400 C 267.938 186.960,267.789 186.240,267.600 185.800 C 267.389 185.310,267.261 185.232,267.268 185.600 M137.353 186.100 C 135.976 188.436,135.886 188.635,136.587 187.800 C 137.400 186.832,138.100 185.600,137.838 185.600 C 137.733 185.600,137.515 185.825,137.353 186.100 M201.429 186.629 C 201.281 187.215,201.238 187.772,201.332 187.866 C 201.427 187.960,201.624 187.558,201.771 186.971 C 201.919 186.385,201.962 185.828,201.868 185.734 C 201.773 185.640,201.576 186.042,201.429 186.629 M94.026 187.707 C 92.887 189.111,92.842 189.229,93.763 188.400 C 94.720 187.538,95.856 185.986,95.514 186.007 C 95.451 186.011,94.782 186.776,94.026 187.707 M186.759 191.100 C 187.991 192.365,189.079 193.351,189.177 193.290 C 189.395 193.154,185.125 188.800,184.772 188.800 C 184.632 188.800,185.526 189.835,186.759 191.100 M113.005 190.912 C 112.591 191.621,111.181 193.321,109.871 194.691 C 107.799 196.859,107.588 197.218,108.245 197.453 C 108.660 197.602,109.163 197.813,109.362 197.923 C 109.561 198.034,109.595 197.916,109.438 197.662 C 109.281 197.408,108.854 197.200,108.489 197.200 C 108.052 197.200,108.585 196.415,110.052 194.900 C 112.361 192.515,114.209 190.075,113.923 189.789 C 113.832 189.699,113.419 190.204,113.005 190.912 M221.856 190.484 C 221.721 190.988,221.627 191.760,221.646 192.200 C 221.665 192.640,221.845 192.298,222.046 191.440 C 222.436 189.778,222.270 188.940,221.856 190.484 M84.978 190.914 C 84.869 191.197,84.834 194.572,84.900 198.414 L 85.020 205.400 85.110 198.119 L 85.200 190.838 87.700 190.696 L 90.200 190.554 87.687 190.477 C 85.951 190.424,85.114 190.559,84.978 190.914 M247.293 192.000 C 247.293 192.770,247.375 193.085,247.476 192.700 C 247.576 192.315,247.576 191.685,247.476 191.300 C 247.375 190.915,247.293 191.230,247.293 192.000 M268.520 194.000 C 268.520 195.210,268.595 195.705,268.687 195.100 C 268.778 194.495,268.778 193.505,268.687 192.900 C 268.595 192.295,268.520 192.790,268.520 194.000 M200.509 194.000 C 200.509 194.990,200.587 195.395,200.682 194.900 C 200.778 194.405,200.778 193.595,200.682 193.100 C 200.587 192.605,200.509 193.010,200.509 194.000 M247.701 195.800 C 247.705 196.680,247.787 196.993,247.883 196.495 C 247.979 195.998,247.975 195.278,247.875 194.895 C 247.775 194.513,247.696 194.920,247.701 195.800 M221.324 197.400 C 221.326 198.720,221.401 199.212,221.490 198.493 C 221.579 197.774,221.577 196.694,221.486 196.093 C 221.395 195.492,221.322 196.080,221.324 197.400 M113.800 201.200 C 114.883 202.300,115.860 203.200,115.970 203.200 C 116.080 203.200,115.283 202.300,114.200 201.200 C 113.117 200.100,112.140 199.200,112.030 199.200 C 111.920 199.200,112.717 200.100,113.800 201.200 M160.705 201.083 C 161.202 201.179,161.922 201.175,162.305 201.075 C 162.687 200.975,162.280 200.896,161.400 200.901 C 160.520 200.905,160.207 200.987,160.705 201.083 M221.324 204.200 C 221.326 205.520,221.401 206.012,221.490 205.293 C 221.579 204.574,221.577 203.494,221.486 202.893 C 221.395 202.292,221.322 202.880,221.324 204.200 M151.978 205.100 L 150.600 206.600 152.100 205.222 C 152.925 204.463,153.600 203.788,153.600 203.722 C 153.600 203.416,153.262 203.704,151.978 205.100 M169.200 203.725 C 169.200 203.794,169.785 204.379,170.500 205.025 L 171.800 206.200 170.625 204.900 C 169.530 203.688,169.200 203.416,169.200 203.725 M247.693 205.600 C 247.693 206.370,247.775 206.685,247.876 206.300 C 247.976 205.915,247.976 205.285,247.876 204.900 C 247.775 204.515,247.693 204.830,247.693 205.600 M88.300 205.482 C 88.795 205.578,89.605 205.578,90.100 205.482 C 90.595 205.387,90.190 205.309,89.200 205.309 C 88.210 205.309,87.805 205.387,88.300 205.482 M268.520 207.200 C 268.520 208.410,268.595 208.905,268.687 208.300 C 268.778 207.695,268.778 206.705,268.687 206.100 C 268.595 205.495,268.520 205.990,268.520 207.200 M200.509 207.200 C 200.509 208.190,200.587 208.595,200.682 208.100 C 200.778 207.605,200.778 206.795,200.682 206.300 C 200.587 205.805,200.509 206.210,200.509 207.200 M195.709 210.000 C 195.709 210.990,195.787 211.395,195.882 210.900 C 195.978 210.405,195.978 209.595,195.882 209.100 C 195.787 208.605,195.709 209.010,195.709 210.000 M247.293 209.600 C 247.293 210.370,247.375 210.685,247.476 210.300 C 247.576 209.915,247.576 209.285,247.476 208.900 C 247.375 208.515,247.293 208.830,247.293 209.600 M221.680 209.400 C 221.680 209.840,221.824 210.650,222.000 211.200 C 222.254 211.992,222.320 212.033,222.320 211.400 C 222.320 210.960,222.176 210.150,222.000 209.600 C 221.746 208.808,221.680 208.767,221.680 209.400 M148.249 211.815 C 148.112 212.173,148.018 212.856,148.041 213.333 C 148.067 213.881,148.203 213.686,148.410 212.803 C 148.760 211.316,148.665 210.733,148.249 211.815 M46.400 213.240 C 44.530 213.906,42.550 214.596,42.000 214.772 C 27.112 219.545,11.211 229.143,4.714 237.278 C 0.945 241.997,-1.750 252.071,0.400 253.400 C 0.620 253.536,0.800 253.918,0.800 254.249 C 0.800 261.063,15.381 273.044,32.600 280.378 C 33.040 280.565,34.089 281.022,34.931 281.392 C 39.270 283.303,50.797 287.248,57.800 289.217 C 58.460 289.403,59.720 289.757,60.600 290.004 C 61.480 290.251,62.830 290.605,63.600 290.791 C 64.370 290.976,66.890 291.605,69.200 292.188 C 71.510 292.771,74.300 293.435,75.400 293.664 C 76.500 293.893,78.120 294.243,79.000 294.441 C 79.880 294.640,81.500 294.981,82.600 295.199 C 83.700 295.417,85.500 295.786,86.600 296.020 C 88.875 296.502,91.989 297.075,95.200 297.600 C 96.410 297.798,98.480 298.152,99.800 298.386 C 105.632 299.421,120.638 301.408,130.000 302.384 C 142.417 303.678,161.935 305.200,166.121 305.200 L 168.400 305.200 168.400 315.576 C 168.400 321.562,168.558 326.050,168.773 326.183 C 169.124 326.400,170.034 326.035,176.328 323.156 C 177.718 322.520,178.919 322.000,178.997 322.000 C 179.075 322.000,181.056 321.100,183.400 320.000 C 185.744 318.900,187.721 318.000,187.794 318.000 C 187.867 318.000,189.660 317.190,191.778 316.200 C 193.897 315.210,195.698 314.400,195.780 314.400 C 195.862 314.400,197.250 313.790,198.864 313.044 C 205.006 310.207,207.506 309.068,210.800 307.603 C 215.663 305.442,218.537 304.132,222.308 302.357 C 224.127 301.501,225.684 300.800,225.768 300.800 C 225.955 300.800,232.481 297.825,234.367 296.880 C 235.717 296.204,236.474 295.200,235.635 295.200 C 235.398 295.200,233.839 294.570,232.172 293.800 C 230.505 293.030,229.079 292.400,229.002 292.400 C 228.925 292.400,226.944 291.500,224.600 290.400 C 222.256 289.300,220.279 288.400,220.206 288.400 C 220.133 288.400,218.340 287.590,216.222 286.600 C 214.103 285.610,212.302 284.800,212.220 284.800 C 212.138 284.800,210.750 284.189,209.136 283.441 C 206.210 282.087,204.804 281.449,197.600 278.200 C 195.510 277.258,192.810 276.037,191.600 275.488 C 190.390 274.939,188.500 274.083,187.400 273.586 C 185.307 272.641,182.246 271.251,178.200 269.410 C 176.880 268.809,174.497 267.714,172.904 266.977 C 168.142 264.774,168.616 263.725,168.494 276.729 L 168.387 288.057 163.694 287.803 C 150.916 287.111,131.569 285.360,121.400 283.975 C 119.640 283.736,117.030 283.380,115.600 283.185 C 102.827 281.445,85.031 278.041,75.800 275.574 C 74.920 275.339,73.570 274.991,72.800 274.800 C 71.514 274.482,70.239 274.133,67.000 273.215 C 65.445 272.774,60.062 271.085,57.000 270.076 C 10.417 254.739,6.052 231.528,46.500 214.241 C 47.325 213.888,48.585 213.346,49.300 213.036 C 50.015 212.726,50.870 212.380,51.200 212.267 C 51.537 212.153,51.362 212.055,50.800 212.045 C 50.250 212.036,48.270 212.573,46.400 213.240 M348.800 212.261 C 349.130 212.370,349.850 212.649,350.400 212.883 C 350.950 213.116,351.760 213.448,352.200 213.620 C 379.219 224.195,388.296 239.602,375.218 252.692 C 372.036 255.877,362.029 262.800,360.608 262.800 C 360.537 262.800,358.976 263.507,357.139 264.371 C 353.880 265.905,346.397 268.981,344.400 269.608 C 343.850 269.781,341.330 270.589,338.800 271.404 C 336.270 272.220,333.660 273.035,333.000 273.216 C 328.708 274.393,324.958 275.360,322.052 276.040 C 317.117 277.195,317.461 276.746,316.652 283.071 C 316.262 286.112,315.748 290.087,315.509 291.904 C 315.270 293.721,315.155 295.288,315.254 295.387 C 315.522 295.656,328.624 292.877,334.200 291.369 C 334.640 291.250,336.350 290.791,338.000 290.349 C 342.502 289.142,343.067 288.981,347.400 287.665 C 351.470 286.429,357.950 284.244,359.400 283.618 C 359.840 283.429,361.460 282.792,363.000 282.203 C 367.079 280.644,376.206 276.359,379.419 274.495 C 406.800 258.608,406.866 240.423,379.600 224.538 C 371.608 219.883,352.163 211.918,349.064 212.032 C 348.511 212.052,348.416 212.134,348.800 212.261 M174.528 215.200 C 174.528 216.630,174.601 217.215,174.689 216.500 C 174.778 215.785,174.778 214.615,174.689 213.900 C 174.601 213.185,174.528 213.770,174.528 215.200 M201.268 213.400 C 201.262 213.840,201.411 214.560,201.600 215.000 C 202.038 216.019,202.038 214.968,201.600 213.600 C 201.343 212.796,201.277 212.757,201.268 213.400 M120.548 219.200 C 120.548 221.510,120.614 222.455,120.695 221.300 C 120.776 220.145,120.776 218.255,120.695 217.100 C 120.614 215.945,120.548 216.890,120.548 219.200 M99.701 217.000 C 99.705 217.880,99.787 218.193,99.883 217.695 C 99.979 217.198,99.975 216.478,99.875 216.095 C 99.775 215.713,99.696 216.120,99.701 217.000 M56.265 216.293 C 56.161 216.462,60.815 216.549,66.608 216.487 C 76.434 216.382,77.152 216.423,77.310 217.087 C 77.444 217.652,77.470 217.634,77.439 217.000 C 77.398 216.167,56.770 215.479,56.265 216.293 M148.068 217.400 C 148.062 217.840,148.211 218.560,148.400 219.000 C 148.838 220.019,148.838 218.968,148.400 217.600 C 148.143 216.796,148.077 216.757,148.068 217.400 M202.056 217.200 C 202.056 217.530,202.211 218.160,202.400 218.600 C 202.617 219.104,202.744 219.178,202.744 218.800 C 202.744 218.470,202.589 217.840,202.400 217.400 C 202.183 216.896,202.056 216.822,202.056 217.200 M195.709 219.200 C 195.709 220.190,195.787 220.595,195.882 220.100 C 195.978 219.605,195.978 218.795,195.882 218.300 C 195.787 217.805,195.709 218.210,195.709 219.200 M56.109 219.600 C 56.109 220.590,56.187 220.995,56.282 220.500 C 56.378 220.005,56.378 219.195,56.282 218.700 C 56.187 218.205,56.109 218.610,56.109 219.600 M127.695 219.600 C 127.695 220.150,127.832 221.140,128.000 221.800 C 128.272 222.870,128.305 222.892,128.305 222.000 C 128.305 221.450,128.168 220.460,128.000 219.800 C 127.728 218.730,127.695 218.708,127.695 219.600 M241.160 224.012 C 239.928 225.305,239.208 226.207,239.560 226.015 C 240.191 225.671,242.140 223.664,243.170 222.300 C 244.123 221.036,243.436 221.622,241.160 224.012 M78.800 222.545 C 78.800 223.659,82.963 227.600,84.138 227.600 C 84.368 227.600,83.728 227.074,82.714 226.432 C 81.701 225.789,80.406 224.577,79.836 223.739 C 79.266 222.900,78.800 222.363,78.800 222.545 M203.798 223.165 C 204.275 224.713,205.194 226.800,205.400 226.800 C 205.614 226.800,204.049 222.707,203.717 222.400 C 203.598 222.290,203.634 222.634,203.798 223.165 M226.800 223.325 C 226.800 223.394,227.385 223.979,228.100 224.625 L 229.400 225.800 228.225 224.500 C 227.130 223.288,226.800 223.016,226.800 223.325 M169.781 226.100 L 168.200 227.800 169.900 226.219 C 171.481 224.748,171.784 224.400,171.481 224.400 C 171.416 224.400,170.651 225.165,169.781 226.100 M95.600 225.870 L 94.600 226.892 95.700 226.200 C 96.305 225.819,96.800 225.349,96.800 225.154 C 96.800 224.670,96.740 224.705,95.600 225.870 M119.429 227.029 C 119.281 227.615,119.238 228.172,119.332 228.266 C 119.427 228.360,119.624 227.958,119.771 227.371 C 119.919 226.785,119.962 226.228,119.868 226.134 C 119.773 226.040,119.576 226.442,119.429 227.029 M233.905 227.483 C 234.402 227.579,235.122 227.575,235.505 227.475 C 235.887 227.375,235.480 227.296,234.600 227.301 C 233.720 227.305,233.407 227.387,233.905 227.483 M85.400 227.981 C 86.168 228.329,88.310 228.556,87.967 228.253 C 87.875 228.172,87.080 227.996,86.200 227.862 C 85.085 227.693,84.842 227.729,85.400 227.981 M90.800 228.000 C 89.996 228.257,89.957 228.323,90.600 228.332 C 91.040 228.338,91.760 228.189,92.200 228.000 C 93.219 227.562,92.168 227.562,90.800 228.000 M130.407 229.679 C 130.394 230.198,133.158 234.668,133.843 235.236 C 134.218 235.546,133.978 234.990,133.312 234.000 C 132.645 233.010,131.720 231.570,131.257 230.800 C 130.793 230.030,130.410 229.525,130.407 229.679 M191.800 231.200 C 191.459 231.860,191.269 232.400,191.379 232.400 C 191.489 232.400,191.859 231.860,192.200 231.200 C 192.541 230.540,192.731 230.000,192.621 230.000 C 192.511 230.000,192.141 230.540,191.800 231.200 M211.518 236.700 C 212.394 237.745,213.528 238.960,214.038 239.400 C 214.547 239.840,213.905 238.985,212.611 237.500 C 209.933 234.427,209.105 233.821,211.518 236.700 M187.220 237.379 L 185.440 239.400 187.401 237.514 C 188.479 236.477,189.280 235.567,189.181 235.493 C 189.081 235.419,188.199 236.267,187.220 237.379 M63.600 236.223 C 63.600 236.637,67.989 241.017,69.400 242.011 C 69.840 242.321,68.982 241.437,67.494 240.046 C 66.006 238.656,64.521 237.137,64.194 236.670 C 63.867 236.204,63.600 236.002,63.600 236.223 M136.200 238.000 C 137.283 239.100,138.260 240.000,138.370 240.000 C 138.480 240.000,137.683 239.100,136.600 238.000 C 135.517 236.900,134.540 236.000,134.430 236.000 C 134.320 236.000,135.117 236.900,136.200 238.000 M112.786 238.619 C 111.584 239.839,109.745 241.388,108.700 242.061 C 106.550 243.444,106.137 244.019,108.081 242.923 C 109.306 242.232,115.630 236.437,115.186 236.412 C 115.069 236.405,113.989 237.399,112.786 238.619 M255.785 238.500 L 253.800 240.600 255.900 238.615 C 257.851 236.771,258.183 236.400,257.885 236.400 C 257.822 236.400,256.877 237.345,255.785 238.500 M216.270 241.083 C 216.968 241.697,218.138 242.541,218.870 242.957 C 220.677 243.985,219.874 243.262,217.200 241.454 C 215.610 240.379,215.352 240.276,216.270 241.083 M170.200 246.400 C 169.093 246.682,169.077 246.709,170.000 246.747 C 170.550 246.769,171.270 246.613,171.600 246.400 C 172.281 245.960,171.929 245.960,170.200 246.400 M230.900 247.076 C 231.285 247.176,231.915 247.176,232.300 247.076 C 232.685 246.975,232.370 246.893,231.600 246.893 C 230.830 246.893,230.515 246.975,230.900 247.076 M82.305 247.483 C 82.802 247.579,83.522 247.575,83.905 247.475 C 84.287 247.375,83.880 247.296,83.000 247.301 C 82.120 247.305,81.807 247.387,82.305 247.483 M93.905 247.483 C 94.402 247.579,95.122 247.575,95.505 247.475 C 95.887 247.375,95.480 247.296,94.600 247.301 C 93.720 247.305,93.407 247.387,93.905 247.483 M159.116 247.497 C 160.499 247.575,162.659 247.574,163.916 247.495 C 165.172 247.416,164.040 247.352,161.400 247.353 C 158.760 247.353,157.732 247.418,159.116 247.497 M87.100 247.893 C 88.035 247.977,89.565 247.977,90.500 247.893 C 91.435 247.809,90.670 247.740,88.800 247.740 C 86.930 247.740,86.165 247.809,87.100 247.893 M282.367 283.355 C 281.843 283.841,256.997 286.440,245.400 287.222 C 236.963 287.790,236.874 287.818,239.600 289.054 C 243.635 290.882,246.169 292.029,249.913 293.722 C 251.955 294.645,253.665 295.560,253.713 295.756 C 253.841 296.280,253.709 296.345,240.867 302.130 C 237.714 303.550,235.305 304.818,235.515 304.948 C 236.761 305.717,282.732 301.428,283.709 300.451 C 284.068 300.092,284.743 296.506,285.791 289.400 C 286.148 286.980,286.540 284.595,286.663 284.100 C 286.869 283.273,283.149 282.628,282.367 283.355 " stroke="none" fill="#ef6b25" fill-rule="evenodd"></path><path id="path1" d="M71.628 100.707 C 71.093 101.968,70.218 103.990,69.684 105.200 C 69.150 106.410,68.485 107.940,68.205 108.600 C 67.925 109.260,67.224 110.840,66.648 112.111 C 66.072 113.382,65.600 114.502,65.600 114.599 C 65.600 114.697,65.129 115.817,64.554 117.088 C 63.979 118.360,63.079 120.350,62.554 121.512 C 62.029 122.673,61.600 123.710,61.600 123.816 C 61.600 123.922,61.250 124.772,60.822 125.704 C 58.856 129.990,56.400 135.736,56.400 136.052 C 56.400 136.243,57.553 136.400,58.963 136.400 L 61.525 136.400 62.804 133.300 C 63.507 131.595,64.356 129.611,64.691 128.891 L 65.299 127.583 72.747 127.691 L 80.194 127.800 81.950 132.100 L 83.706 136.400 86.253 136.400 C 88.820 136.400,89.545 135.803,88.464 134.580 C 88.279 134.371,87.887 133.570,87.592 132.800 C 87.102 131.521,80.851 116.472,80.032 114.600 C 79.038 112.328,78.311 110.595,76.597 106.400 C 72.823 97.168,73.028 97.403,71.628 100.707 M176.962 100.554 C 176.845 100.859,176.806 101.894,176.875 102.854 L 177.000 104.600 180.800 104.800 L 184.600 105.000 184.705 120.700 L 184.809 136.400 187.205 136.400 L 189.600 136.400 189.600 121.233 C 189.600 103.039,189.145 104.800,193.843 104.800 L 197.600 104.800 197.600 102.400 L 197.600 100.000 187.387 100.000 C 179.053 100.000,177.136 100.102,176.962 100.554 M117.514 108.900 C 117.405 112.806,117.358 113.006,116.501 113.128 C 114.746 113.377,114.657 117.995,116.400 118.402 L 117.400 118.636 117.508 127.518 L 117.615 136.400 119.800 136.400 L 121.985 136.400 122.092 127.500 L 122.200 118.600 124.118 118.477 L 126.037 118.355 125.918 115.877 L 125.800 113.400 124.000 113.200 L 122.200 113.000 122.086 108.900 L 121.972 104.800 119.800 104.800 L 117.628 104.800 117.514 108.900 M74.363 113.306 C 75.428 116.090,76.676 119.042,77.233 120.095 C 78.353 122.214,77.979 122.400,72.600 122.400 C 69.850 122.400,67.600 122.259,67.600 122.087 C 67.600 121.915,68.562 119.530,69.738 116.787 C 70.914 114.044,71.987 111.488,72.123 111.107 C 72.549 109.911,73.374 110.720,74.363 113.306 M100.000 113.074 C 96.282 113.812,94.066 118.888,95.834 122.616 C 96.512 124.043,97.183 124.573,100.740 126.487 C 104.497 128.509,105.253 129.983,103.456 131.780 C 102.070 133.167,100.941 133.062,99.374 131.400 C 97.892 129.829,97.509 129.760,95.800 130.762 C 92.595 132.640,96.703 137.179,101.622 137.193 C 107.194 137.210,111.001 131.114,108.357 126.409 C 107.608 125.077,102.770 121.600,101.664 121.600 C 101.126 121.600,99.600 119.792,99.600 119.154 C 99.600 117.508,101.638 117.120,103.094 118.489 L 104.040 119.377 105.820 118.433 C 107.836 117.364,107.909 117.157,106.810 115.615 C 105.321 113.523,102.687 112.540,100.000 113.074 M140.509 113.125 C 140.019 113.276,139.252 113.715,138.804 114.100 C 137.824 114.943,137.200 114.999,137.200 114.243 C 137.200 113.574,136.340 113.200,134.800 113.200 C 132.279 113.200,132.400 112.602,132.400 125.043 L 132.400 136.400 134.800 136.400 L 137.200 136.400 137.200 129.019 C 137.200 120.176,137.475 119.189,140.259 118.052 C 141.325 117.616,141.705 117.634,142.736 118.167 C 144.111 118.878,144.068 118.912,145.445 115.966 C 146.249 114.245,146.259 114.105,145.610 113.699 C 144.691 113.125,141.626 112.780,140.509 113.125 M159.600 113.156 C 150.627 115.061,147.468 126.526,153.938 133.704 C 158.208 138.440,165.831 138.397,170.145 133.612 C 178.021 124.875,170.759 110.787,159.600 113.156 M210.909 113.140 C 210.419 113.283,209.652 113.715,209.204 114.100 C 208.162 114.997,207.905 114.981,207.280 113.979 C 206.859 113.305,206.428 113.179,204.883 113.279 L 203.000 113.400 202.894 124.900 L 202.788 136.400 205.164 136.400 L 207.540 136.400 207.670 128.500 C 207.783 121.638,207.896 120.458,208.533 119.520 C 209.448 118.172,211.630 117.374,212.754 117.975 C 214.142 118.718,214.641 118.447,215.581 116.441 C 216.911 113.601,214.694 112.035,210.909 113.140 M228.894 113.173 C 221.102 115.134,218.379 127.441,224.284 134.009 C 227.385 137.457,232.435 138.270,235.889 135.877 C 237.748 134.588,238.000 134.555,238.000 135.600 C 238.000 136.311,238.267 136.400,240.406 136.400 L 242.812 136.400 242.706 124.900 L 242.600 113.400 240.674 113.277 C 238.848 113.160,238.724 113.218,238.286 114.377 C 237.750 115.799,237.621 115.838,236.555 114.900 C 234.632 113.208,231.531 112.509,228.894 113.173 M260.600 113.064 C 251.524 114.403,247.994 127.197,254.812 134.042 C 257.909 137.153,263.130 138.092,267.300 136.289 L 268.800 135.641 268.800 132.887 C 268.800 129.437,268.661 129.314,266.682 131.008 C 260.505 136.296,252.798 127.735,257.208 120.483 C 259.309 117.028,264.633 116.543,267.363 119.559 C 267.782 120.022,268.276 120.400,268.462 120.400 C 268.875 120.400,268.904 115.162,268.494 114.592 C 267.711 113.505,263.342 112.660,260.600 113.064 M165.354 118.426 C 168.124 120.060,169.375 125.625,167.744 129.062 C 165.454 133.887,158.233 133.803,156.195 128.927 C 153.258 121.898,159.367 114.894,165.354 118.426 M235.466 118.623 C 241.101 122.921,238.026 133.609,231.442 132.609 C 223.734 131.438,224.389 117.600,232.153 117.600 C 233.652 117.600,234.446 117.846,235.466 118.623 M84.200 154.446 C 70.885 156.822,62.663 165.769,60.622 180.100 L 60.351 182.000 69.975 182.000 L 79.600 182.000 79.600 180.994 C 79.600 175.887,83.733 172.137,88.992 172.472 C 100.160 173.183,98.583 190.800,87.351 190.800 L 85.200 190.800 85.200 198.151 L 85.200 205.501 88.500 205.451 C 95.222 205.347,99.681 209.844,99.755 216.800 C 99.910 231.277,80.748 232.913,77.583 218.693 L 77.070 216.387 66.635 216.493 L 56.200 216.600 56.336 219.000 C 57.167 233.677,70.873 246.655,86.400 247.466 C 103.453 248.358,114.826 241.225,119.670 226.600 C 120.386 224.439,120.384 213.589,119.668 211.400 C 117.586 205.039,113.989 200.232,109.763 198.165 L 107.594 197.103 110.144 194.401 C 119.827 184.136,117.029 164.999,104.797 157.830 C 99.209 154.555,91.077 153.219,84.200 154.446 M230.600 154.256 C 215.765 157.287,206.992 166.380,202.484 183.400 C 200.125 192.302,199.826 206.331,201.815 214.800 C 201.944 215.350,202.240 216.610,202.474 217.600 C 203.364 221.370,205.883 228.010,207.178 230.000 C 207.536 230.550,208.090 231.517,208.409 232.150 C 209.569 234.451,214.330 239.451,217.245 241.429 C 234.790 253.337,256.342 245.790,264.451 224.900 C 264.643 224.405,264.962 223.595,265.160 223.100 C 268.615 214.461,269.779 196.799,267.552 186.800 C 266.174 180.615,265.343 178.020,263.356 173.694 C 257.164 160.212,242.895 151.745,230.600 154.256 M157.326 158.100 C 156.879 158.595,155.143 160.980,153.470 163.400 C 151.797 165.820,148.702 170.230,146.594 173.200 C 136.379 187.588,133.062 193.371,130.187 201.800 C 122.619 223.992,133.231 243.314,154.908 246.811 C 160.961 247.787,171.559 246.753,176.000 244.752 C 188.005 239.344,194.147 231.302,195.643 219.035 C 198.359 196.749,180.841 178.924,162.500 185.311 C 159.607 186.318,158.777 186.116,160.107 184.729 C 160.544 184.273,163.619 180.294,166.200 176.845 C 166.640 176.257,168.530 173.830,170.400 171.451 C 172.270 169.072,174.160 166.639,174.600 166.043 C 175.040 165.448,176.585 163.440,178.033 161.581 C 179.482 159.721,180.797 157.975,180.957 157.700 C 181.580 156.626,158.302 157.020,157.326 158.100 M238.209 174.748 C 240.891 175.967,243.503 179.283,245.651 184.200 C 249.350 192.665,248.553 211.706,244.133 220.514 C 240.248 228.256,232.261 229.759,227.207 223.700 C 220.106 215.188,219.075 193.009,225.213 180.800 C 228.068 175.121,233.481 172.601,238.209 174.748 M167.330 202.503 C 175.718 206.970,177.286 218.497,170.485 225.681 C 162.089 234.548,148.026 227.988,148.004 215.194 C 147.987 204.628,158.437 197.765,167.330 202.503 " stroke="none" fill="#fbfbfb" fill-rule="evenodd"></path><path id="path2" d="M0.006 123.100 C 0.010 202.722,0.149 245.988,0.400 245.600 C 0.613 245.270,0.791 244.752,0.794 244.449 C 0.845 239.817,10.616 230.015,21.000 224.180 C 29.205 219.568,48.054 211.924,50.952 212.032 C 51.513 212.052,51.597 212.132,51.200 212.267 C 50.870 212.380,49.970 212.747,49.200 213.083 C 48.430 213.420,47.170 213.962,46.400 214.289 C 6.062 231.392,10.504 254.768,57.000 270.076 C 60.284 271.157,65.524 272.798,67.100 273.237 C 67.815 273.437,69.075 273.792,69.900 274.027 C 70.725 274.261,72.030 274.609,72.800 274.800 C 73.570 274.991,74.920 275.339,75.800 275.574 C 85.031 278.041,102.827 281.445,115.600 283.185 C 117.030 283.380,119.640 283.736,121.400 283.975 C 131.569 285.360,150.916 287.111,163.694 287.803 L 168.387 288.057 168.494 276.729 C 168.616 263.725,168.142 264.774,172.904 266.977 C 174.497 267.714,176.880 268.809,178.200 269.410 C 182.246 271.251,185.307 272.641,187.400 273.586 C 188.500 274.083,190.390 274.939,191.600 275.488 C 192.810 276.037,195.510 277.258,197.600 278.200 C 204.804 281.449,206.210 282.087,209.136 283.441 C 210.750 284.189,212.138 284.800,212.220 284.800 C 212.302 284.800,214.103 285.610,216.222 286.600 C 218.340 287.590,220.133 288.400,220.206 288.400 C 220.279 288.400,222.256 289.300,224.600 290.400 C 226.944 291.500,228.925 292.400,229.002 292.400 C 229.079 292.400,230.505 293.030,232.172 293.800 C 233.839 294.570,235.398 295.200,235.635 295.200 C 236.474 295.200,235.717 296.204,234.367 296.880 C 232.481 297.825,225.955 300.800,225.768 300.800 C 225.684 300.800,224.127 301.501,222.308 302.357 C 218.537 304.132,215.663 305.442,210.800 307.603 C 207.506 309.068,205.006 310.207,198.864 313.044 C 197.250 313.790,195.862 314.400,195.780 314.400 C 195.698 314.400,193.897 315.210,191.778 316.200 C 189.660 317.190,187.867 318.000,187.794 318.000 C 187.721 318.000,185.744 318.900,183.400 320.000 C 181.056 321.100,179.075 322.000,178.997 322.000 C 178.919 322.000,177.718 322.520,176.328 323.156 C 170.034 326.035,169.124 326.400,168.773 326.183 C 168.558 326.050,168.400 321.562,168.400 315.576 L 168.400 305.200 166.121 305.200 C 161.935 305.200,142.417 303.678,130.000 302.384 C 120.638 301.408,105.632 299.421,99.800 298.386 C 98.480 298.152,96.410 297.798,95.200 297.600 C 91.989 297.075,88.875 296.502,86.600 296.020 C 85.500 295.786,83.700 295.417,82.600 295.199 C 81.500 294.981,79.880 294.640,79.000 294.441 C 78.120 294.243,76.500 293.893,75.400 293.664 C 74.300 293.435,71.510 292.771,69.200 292.188 C 66.890 291.605,64.370 290.976,63.600 290.791 C 62.830 290.605,61.525 290.261,60.700 290.027 C 59.875 289.792,58.615 289.438,57.900 289.240 C 51.203 287.385,39.315 283.323,34.931 281.392 C 34.089 281.022,33.040 280.565,32.600 280.378 C 15.381 273.044,0.800 261.063,0.800 254.249 C 0.800 253.918,0.620 253.536,0.400 253.400 C 0.134 253.236,0.000 277.729,0.000 326.576 L 0.000 400.000 127.900 399.994 C 210.621 399.990,255.588 399.851,255.200 399.600 C 254.870 399.387,254.352 399.209,254.049 399.206 C 253.049 399.195,248.691 396.768,246.302 394.891 C 238.499 388.760,228.930 372.150,223.551 355.400 C 223.268 354.520,222.893 353.629,222.718 353.420 C 222.543 353.211,222.400 352.637,222.400 352.144 C 222.400 351.651,222.220 351.136,222.000 351.000 C 221.780 350.864,221.600 350.403,221.600 349.976 C 221.600 349.549,221.780 349.200,222.000 349.200 C 222.220 349.200,222.400 349.472,222.400 349.805 C 222.400 350.138,222.559 350.723,222.753 351.105 C 222.948 351.487,223.297 352.250,223.530 352.800 C 242.298 397.114,267.310 388.765,282.847 333.000 C 283.092 332.120,283.446 330.950,283.632 330.400 C 284.018 329.264,287.072 316.750,287.575 314.246 C 287.757 313.341,288.196 311.160,288.551 309.400 C 290.537 299.565,291.860 291.783,292.970 283.400 C 294.494 271.904,295.677 260.916,296.394 251.600 C 296.622 248.630,296.987 243.902,297.205 241.092 C 297.422 238.283,297.600 234.998,297.600 233.792 L 297.600 231.600 286.200 231.600 C 279.930 231.600,274.800 231.455,274.800 231.279 C 274.800 231.102,275.235 230.067,275.767 228.979 C 276.299 227.890,277.661 224.930,278.794 222.400 C 279.927 219.870,281.274 216.900,281.789 215.800 C 282.303 214.700,283.123 212.900,283.610 211.800 C 284.098 210.700,285.356 207.910,286.408 205.600 C 287.459 203.290,288.807 200.320,289.403 199.000 C 290.000 197.680,291.008 195.462,291.644 194.072 C 292.280 192.682,292.800 191.481,292.800 191.403 C 292.800 191.325,293.700 189.344,294.800 187.000 C 295.900 184.656,296.800 182.679,296.800 182.606 C 296.800 182.533,297.610 180.740,298.600 178.622 C 299.590 176.503,300.400 174.704,300.400 174.624 C 300.400 174.438,303.379 167.928,304.483 165.700 C 305.541 163.566,305.668 163.577,306.708 165.900 C 307.176 166.945,308.082 168.970,308.721 170.400 C 309.953 173.157,311.060 175.613,312.688 179.200 C 313.237 180.410,314.458 183.110,315.400 185.200 C 316.342 187.290,317.583 190.035,318.157 191.300 C 318.731 192.565,319.669 194.635,320.243 195.900 C 320.817 197.165,322.058 199.910,323.000 202.000 C 323.942 204.090,325.183 206.835,325.757 208.100 C 326.331 209.365,327.269 211.435,327.843 212.700 C 328.417 213.965,329.658 216.710,330.600 218.800 C 331.542 220.890,332.763 223.590,333.312 224.800 C 335.672 230.000,336.000 230.778,336.000 231.171 C 336.000 231.445,332.423 231.623,325.500 231.693 L 315.000 231.800 314.722 236.200 C 314.570 238.620,314.247 243.750,314.006 247.600 C 313.764 251.450,313.405 256.220,313.206 258.200 C 313.008 260.180,312.652 263.870,312.415 266.400 C 311.745 273.548,310.300 285.290,309.191 292.600 C 308.990 293.920,308.542 296.890,308.194 299.200 C 307.847 301.510,307.397 304.210,307.195 305.200 C 306.993 306.190,306.453 309.070,305.995 311.600 C 305.536 314.130,304.990 316.965,304.781 317.900 C 303.842 322.091,303.610 323.133,303.153 325.200 C 302.011 330.372,299.378 340.470,297.991 345.000 C 297.520 346.540,296.987 348.340,296.808 349.000 C 296.091 351.634,292.509 361.722,291.367 364.324 C 291.010 365.136,290.570 366.160,290.389 366.600 C 288.126 372.087,283.303 381.146,280.302 385.544 C 275.956 391.915,267.262 399.200,264.004 399.200 C 263.588 399.200,263.136 399.380,263.000 399.600 C 262.836 399.866,285.729 400.000,331.376 400.000 L 400.000 400.000 400.000 326.400 C 400.000 285.920,399.931 252.800,399.846 252.800 C 399.761 252.800,399.387 253.745,399.014 254.900 C 396.887 261.493,390.056 268.323,379.419 274.495 C 376.206 276.359,367.079 280.644,363.000 282.203 C 361.460 282.792,359.840 283.429,359.400 283.618 C 357.950 284.244,351.470 286.429,347.400 287.665 C 343.067 288.981,342.502 289.142,338.000 290.349 C 336.350 290.791,334.640 291.250,334.200 291.369 C 328.624 292.877,315.522 295.656,315.254 295.387 C 315.155 295.288,315.270 293.721,315.509 291.904 C 315.748 290.087,316.262 286.112,316.652 283.071 C 317.461 276.746,317.117 277.195,322.052 276.040 C 324.958 275.360,328.708 274.393,333.000 273.216 C 333.660 273.035,336.270 272.220,338.800 271.404 C 341.330 270.589,343.850 269.781,344.400 269.608 C 346.397 268.981,353.880 265.905,357.139 264.371 C 358.976 263.507,360.537 262.800,360.608 262.800 C 360.679 262.800,362.326 261.883,364.268 260.762 C 390.789 245.458,386.228 227.894,352.000 213.513 C 350.539 212.899,349.480 212.485,348.800 212.261 C 348.416 212.134,348.511 212.052,349.064 212.032 C 350.961 211.962,365.178 217.282,372.630 220.849 C 386.005 227.251,396.042 235.679,398.537 242.604 C 398.933 243.702,399.412 244.960,399.601 245.400 C 399.795 245.850,399.958 192.338,399.973 123.100 L 400.000 0.000 331.333 0.000 C 293.567 0.000,262.786 0.119,262.932 0.265 C 263.078 0.411,264.143 0.862,265.299 1.268 C 272.994 3.965,281.435 14.016,288.085 28.400 C 291.451 35.681,291.405 35.570,294.078 43.000 C 295.569 47.144,295.984 48.418,298.024 55.100 C 299.421 59.675,302.107 69.845,302.858 73.400 C 303.091 74.500,303.423 76.030,303.596 76.800 C 305.222 84.011,308.044 99.438,309.156 107.200 C 310.660 117.692,311.687 125.975,312.379 133.200 C 313.486 144.755,313.542 145.462,314.617 161.800 C 314.858 165.465,314.555 165.341,312.586 160.971 C 311.998 159.667,310.941 157.340,310.237 155.800 C 309.533 154.260,308.254 151.425,307.395 149.500 C 305.590 145.453,305.596 145.457,304.480 147.700 C 303.466 149.740,300.800 155.603,300.800 155.794 C 300.800 155.868,300.150 157.317,299.355 159.015 C 297.601 162.760,297.352 162.527,297.023 156.831 C 296.732 151.818,296.141 144.554,295.571 139.000 C 294.346 127.071,294.280 126.497,292.996 116.800 C 292.389 112.214,291.930 109.151,291.166 104.600 C 290.574 101.074,289.313 94.248,288.800 91.800 C 288.616 90.920,288.246 89.120,287.978 87.800 C 287.289 84.407,284.040 70.800,283.633 69.600 C 283.446 69.050,283.092 67.880,282.847 67.000 C 267.617 12.339,242.968 3.136,224.456 45.200 C 223.730 46.850,222.970 48.513,222.768 48.895 C 222.566 49.277,222.400 49.862,222.400 50.195 C 222.400 50.528,222.220 50.800,222.000 50.800 C 221.447 50.800,221.438 50.842,222.966 46.278 C 231.428 21.022,242.518 4.573,253.500 0.993 C 254.655 0.616,255.600 0.239,255.600 0.154 C 255.600 0.069,198.090 0.000,127.800 0.000 L 0.000 0.000 0.006 123.100 M73.976 99.500 C 74.272 100.325,74.920 101.900,75.416 103.000 C 75.912 104.100,77.165 107.070,78.201 109.600 C 79.236 112.130,80.415 114.935,80.821 115.832 C 81.226 116.730,81.942 118.440,82.410 119.632 C 83.234 121.729,83.611 122.623,84.922 125.600 C 86.497 129.178,89.200 135.997,89.200 136.393 C 89.200 136.685,88.236 136.795,86.361 136.718 L 83.522 136.600 82.319 133.600 C 81.657 131.950,80.810 129.970,80.438 129.200 L 79.761 127.800 72.603 127.800 L 65.444 127.800 64.151 130.800 C 63.440 132.450,62.562 134.475,62.200 135.300 L 61.542 136.800 58.995 136.800 C 55.917 136.800,55.737 136.577,56.835 134.120 C 57.307 133.064,57.923 131.660,58.204 131.000 C 58.486 130.340,59.072 128.990,59.509 128.000 C 59.945 127.010,61.154 124.220,62.195 121.800 C 63.237 119.380,64.448 116.590,64.887 115.600 C 65.601 113.988,66.140 112.742,67.222 110.200 C 67.409 109.760,68.122 108.140,68.807 106.600 C 69.491 105.060,70.596 102.495,71.263 100.900 C 72.630 97.629,73.201 97.334,73.976 99.500 M197.919 102.288 C 198.057 105.187,198.144 105.132,193.200 105.299 L 190.200 105.400 190.000 121.000 L 189.800 136.600 187.200 136.600 L 184.600 136.600 184.495 120.915 L 184.391 105.230 180.695 105.115 L 177.000 105.000 176.882 102.293 L 176.763 99.587 187.282 99.693 L 197.800 99.800 197.919 102.288 M122.486 108.900 L 122.600 113.000 124.400 113.200 L 126.200 113.400 126.200 115.800 L 126.200 118.200 124.307 118.322 L 122.415 118.443 122.307 127.522 L 122.200 136.600 119.800 136.600 L 117.400 136.600 117.200 127.600 C 117.001 118.640,116.996 118.599,116.100 118.472 C 115.274 118.355,115.200 118.134,115.200 115.800 C 115.200 113.466,115.274 113.245,116.100 113.128 C 116.958 113.006,117.005 112.807,117.114 108.900 L 117.228 104.800 119.800 104.800 L 122.372 104.800 122.486 108.900 M71.222 114.117 C 70.464 115.923,69.422 118.350,68.905 119.511 C 68.389 120.672,68.075 121.797,68.207 122.011 C 68.465 122.429,76.904 122.563,77.311 122.156 C 77.545 121.922,76.197 117.832,75.612 117.000 C 75.457 116.780,74.914 115.520,74.405 114.200 C 72.940 110.400,72.784 110.396,71.222 114.117 M103.726 112.980 C 106.602 114.005,108.684 116.801,107.328 117.815 C 104.816 119.696,104.121 119.831,102.953 118.662 C 101.758 117.467,100.927 117.417,100.245 118.500 C 99.571 119.571,100.303 120.388,103.638 122.285 C 108.577 125.095,109.549 126.571,109.242 130.798 C 108.791 137.015,100.680 139.774,96.043 135.288 C 93.526 132.853,93.507 131.672,95.965 130.418 C 98.047 129.355,98.223 129.377,99.062 130.798 C 99.972 132.337,102.058 132.833,103.216 131.786 C 104.649 130.489,104.039 128.325,102.000 127.470 C 101.461 127.244,98.088 125.262,96.948 124.501 C 92.948 121.832,94.926 114.330,100.015 112.870 C 101.847 112.344,101.953 112.347,103.726 112.980 M144.040 112.853 C 146.300 113.604,146.559 114.044,145.809 115.843 C 144.539 118.886,144.173 119.225,142.864 118.572 C 138.906 116.597,137.849 118.607,137.600 128.581 L 137.400 136.600 134.800 136.600 L 132.200 136.600 132.200 125.000 L 132.200 113.400 134.667 113.282 C 136.887 113.175,137.162 113.249,137.405 114.016 L 137.676 114.868 138.586 114.014 C 139.405 113.244,141.066 112.526,142.240 112.434 C 142.482 112.415,143.292 112.604,144.040 112.853 M167.082 113.854 C 177.816 118.941,174.655 136.419,162.805 137.493 C 150.642 138.596,145.501 120.449,156.201 114.178 C 159.544 112.219,163.389 112.105,167.082 113.854 M214.440 112.853 C 216.897 113.670,217.034 114.042,215.801 116.562 C 214.625 118.966,214.575 118.999,213.026 118.410 C 209.131 116.929,208.246 118.719,208.000 128.581 L 207.800 136.600 205.200 136.600 L 202.600 136.600 202.488 125.800 C 202.349 112.455,202.197 113.200,205.064 113.200 C 206.737 113.200,207.442 113.378,207.820 113.895 C 208.301 114.553,208.369 114.552,209.121 113.872 C 209.846 113.215,211.550 112.520,212.640 112.434 C 212.882 112.415,213.692 112.604,214.440 112.853 M235.697 114.013 L 237.594 115.163 237.845 114.164 C 238.083 113.216,238.223 113.170,240.548 113.282 L 243.000 113.400 243.000 125.000 L 243.000 136.600 240.500 136.719 C 238.500 136.814,238.000 136.719,238.000 136.243 C 238.000 135.312,237.218 135.059,236.460 135.746 C 231.695 140.058,223.513 136.608,221.418 129.404 C 218.276 118.596,227.271 108.901,235.697 114.013 M267.300 113.496 L 268.800 114.087 268.800 117.443 C 268.800 121.088,268.633 121.327,267.170 119.765 C 261.305 113.506,252.694 122.558,257.642 129.780 C 259.698 132.780,264.115 133.222,266.712 130.686 C 268.762 128.684,268.800 128.718,268.800 132.532 C 268.800 135.593,268.727 135.900,267.900 136.299 C 261.459 139.410,255.174 136.921,251.588 129.839 C 250.603 127.895,250.801 122.232,251.938 119.800 C 254.762 113.759,261.232 111.105,267.300 113.496 M159.030 118.507 C 153.805 121.479,154.901 131.157,160.582 132.223 C 164.086 132.880,166.991 131.003,167.990 127.436 C 169.777 121.053,164.244 115.540,159.030 118.507 M229.637 118.466 C 223.782 122.479,226.075 132.943,232.663 132.275 C 236.306 131.906,238.231 128.962,237.929 124.222 C 237.605 119.126,233.167 116.046,229.637 118.466 M96.640 154.353 C 97.278 154.548,98.610 154.945,99.600 155.237 C 104.931 156.808,111.116 161.849,113.296 166.400 C 115.601 171.210,115.798 172.182,115.799 178.800 C 115.800 187.284,114.874 189.910,110.155 194.800 L 108.032 197.000 109.716 197.792 C 119.938 202.601,123.890 219.719,117.696 232.357 C 110.883 246.258,89.793 252.209,74.000 244.686 C 67.055 241.378,57.600 230.320,57.600 225.505 C 57.600 225.205,57.449 224.789,57.264 224.580 C 56.667 223.904,55.929 219.850,56.066 218.000 L 56.200 216.200 66.710 216.093 C 74.921 216.010,77.252 216.098,77.366 216.493 C 77.447 216.772,77.745 218.051,78.029 219.336 C 79.390 225.494,85.260 229.375,91.068 227.955 C 104.258 224.731,101.445 204.731,87.938 205.697 C 84.550 205.940,84.734 206.441,84.886 197.400 L 85.000 190.600 87.800 190.375 C 93.387 189.926,96.377 186.657,96.394 180.979 C 96.425 170.710,81.915 169.308,80.199 179.414 C 79.643 182.694,80.650 182.400,69.960 182.400 C 58.718 182.400,59.558 182.912,61.020 176.950 C 63.794 165.638,70.392 157.870,79.400 155.311 C 80.280 155.061,81.630 154.683,82.400 154.469 C 84.185 153.975,95.107 153.886,96.640 154.353 M241.040 154.353 C 241.678 154.548,243.010 154.949,244.000 155.244 C 259.488 159.871,268.815 176.997,268.793 200.765 C 268.770 225.293,259.837 240.644,242.200 246.468 C 236.890 248.222,226.399 246.913,220.349 243.742 C 204.246 235.302,196.609 210.574,201.989 184.289 C 204.824 170.438,214.172 158.748,225.200 155.266 C 225.970 155.022,227.140 154.652,227.800 154.443 C 229.335 153.957,239.512 153.888,241.040 154.353 M180.801 158.399 C 180.331 159.059,178.204 161.834,176.073 164.566 C 173.943 167.298,170.580 171.632,168.600 174.197 C 166.620 176.762,163.791 180.413,162.313 182.311 C 159.572 185.830,159.309 186.463,160.901 185.708 C 174.083 179.451,190.666 188.517,194.723 204.200 C 194.950 205.080,195.331 206.541,195.568 207.446 C 197.055 213.115,195.642 224.342,192.705 230.200 C 181.190 253.167,142.221 253.428,130.867 230.614 C 124.155 217.128,127.488 200.529,140.800 181.143 C 146.813 172.386,156.362 158.789,157.124 157.900 C 157.671 157.262,158.789 157.200,169.689 157.200 L 181.654 157.200 180.801 158.399 M232.403 174.455 C 221.802 177.627,217.553 204.270,225.140 219.997 C 231.551 233.285,244.524 227.399,247.174 210.000 C 250.300 189.472,242.771 171.353,232.403 174.455 M156.530 202.187 C 143.146 208.272,146.933 229.371,161.400 229.321 C 175.440 229.272,179.441 208.528,166.593 202.397 C 163.329 200.839,159.663 200.763,156.530 202.187 M286.663 284.100 C 286.540 284.595,286.148 286.980,285.791 289.400 C 284.743 296.506,284.068 300.092,283.709 300.451 C 282.732 301.428,236.761 305.717,235.515 304.948 C 235.305 304.818,237.714 303.550,240.867 302.130 C 253.709 296.345,253.841 296.280,253.713 295.756 C 253.665 295.560,251.955 294.645,249.913 293.722 C 246.169 292.029,243.635 290.882,239.600 289.054 C 236.874 287.818,236.963 287.790,245.400 287.222 C 256.997 286.440,281.843 283.841,282.367 283.355 C 283.149 282.628,286.869 283.273,286.663 284.100 " stroke="none" fill="#040404" fill-rule="evenodd"></path></g></svg>